<?xml version="1.0" encoding="UTF-8"?> <svg xmlns="http://www.w3.org/2000/svg" width="224.226" height="32.758" viewBox="0 0 224.226 32.758"><g id="Camada_4" transform="translate(-16.15 -15.66)"><g id="Grupo_1" data-name="Grupo 1" transform="translate(16.15 15.66)"><path id="Caminho_1" data-name="Caminho 1" d="M16.15,15.66,32.744,29.431,16.15,43.2Z" transform="translate(-16.15 -15.66)" fill="#2e2e2f" fill-rule="evenodd"></path></g><path id="Caminho_2" data-name="Caminho 2" d="M93.431,37.321a13.065,13.065,0,0,1-.167,2.291,6.125,6.125,0,0,1-2.038,3.434,7.569,7.569,0,0,1-5.3,1.987,6.949,6.949,0,0,1-5.994-3.393l3.916-3.98q.266,2.238,1.949,2.239,1.715,0,1.68-2.663l-.017-1.263V21.43h5.977V37.321Z" transform="translate(-42.007 -3.8)" fill="#2e2e2f"></path><path id="Caminho_3" data-name="Caminho 3" d="M151.932,52.893a5.625,5.625,0,0,1-4.124,5.79,13.016,13.016,0,0,1-4.192.591q-4.865,0-6.988-2.39a5.782,5.782,0,0,1-1.348-3.991V42.98h5.54v8.855a2.91,2.91,0,0,0,.7,2.154,3.3,3.3,0,0,0,4.168,0,2.91,2.91,0,0,0,.7-2.154V42.98h5.54v9.913Z" transform="translate(-78.462 -17.994)" fill="#2e2e2f"></path><path id="Caminho_4" data-name="Caminho 4" d="M308.273,49.873a8,8,0,0,1-2.775,6.39,7.521,7.521,0,0,1-5.059,1.9,7.1,7.1,0,0,1-3.127-.707,6.235,6.235,0,0,1-1.731-1.331V65.47h-5.54V42.038h5.54v1.751a5.113,5.113,0,0,1,1.6-1.447,6.475,6.475,0,0,1,3.212-.792,7.606,7.606,0,0,1,5.179,2A8.023,8.023,0,0,1,308.273,49.873Zm-5.756-.017a3.45,3.45,0,0,0-.836-2.311,3.39,3.39,0,0,0-2.714-1.249,3.56,3.56,0,1,0,0,7.121,3.343,3.343,0,0,0,2.7-1.249A3.476,3.476,0,0,0,302.517,49.856Z" transform="translate(-180.392 -17.052)" fill="#2e2e2f"></path><path id="Caminho_5" data-name="Caminho 5" d="M371.285,50.988h-11.6q0,3.518,3.383,3.52a2.94,2.94,0,0,0,2.646-1.482h5.353a7.216,7.216,0,0,1-1.884,3.274,8.52,8.52,0,0,1-6.042,2.1q-4.813,0-7.24-2.929a8.071,8.071,0,0,1-1.819-5.336,8.351,8.351,0,0,1,2.273-6.076,8.528,8.528,0,0,1,6.414-2.338q5.1,0,7.288,3.711a9.409,9.409,0,0,1,1.229,4.858v.7Zm-5.168-3.147a2.966,2.966,0,0,0-3.13-2.642,2.959,2.959,0,0,0-3.147,2.642Z" transform="translate(-222.57 -17.164)" fill="#2e2e2f"></path><path id="Caminho_6" data-name="Caminho 6" d="M428.643,47.641a5.412,5.412,0,0,0-2.352-.556,3.354,3.354,0,0,0-3.526,2.239,6.356,6.356,0,0,0-.3,2.171V58.18h-5.54V42.558h5.54v2.56a5.988,5.988,0,0,1,1.881-1.97,6.188,6.188,0,0,1,3.223-.809q.435,0,1.075.051v5.25Z" transform="translate(-263.959 -17.572)" fill="#2e2e2f"></path><path id="Caminho_7" data-name="Caminho 7" d="M474.387,26.411H467.2v3.922h6.548v4.984H467.2v9.091H461.22V21.43h13.163v4.981Z" transform="translate(-293.136 -3.8)" fill="#26923b"></path><path id="Caminho_8" data-name="Caminho 8" d="M528.939,49.684a7.94,7.94,0,0,1-2.137,5.571,10.734,10.734,0,0,1-14.525,0,8.11,8.11,0,0,1-2.137-5.708,7.774,7.774,0,0,1,2.154-5.4q2.611-2.847,7.425-2.844a9.19,9.19,0,0,1,7.07,2.844A7.9,7.9,0,0,1,528.939,49.684Zm-5.759,0a3.625,3.625,0,0,0-3.635-3.639,3.457,3.457,0,0,0-2.782,1.287,3.636,3.636,0,0,0,0,4.721,3.453,3.453,0,0,0,2.782,1.287,3.5,3.5,0,0,0,2.581-1.058A3.538,3.538,0,0,0,523.18,49.684Z" transform="translate(-325.356 -16.887)" fill="#26923b"></path><path id="Caminho_9" data-name="Caminho 9" d="M650.379,47.641a5.412,5.412,0,0,0-2.352-.556,3.354,3.354,0,0,0-3.526,2.239,6.36,6.36,0,0,0-.3,2.171V58.18H638.66V42.558H644.2v2.56a6.023,6.023,0,0,1,1.881-1.97,6.188,6.188,0,0,1,3.222-.809q.435,0,1.075.051v5.25Z" transform="translate(-410.003 -17.572)" fill="#26923b"></path><g id="Grupo_2" data-name="Grupo 2" transform="translate(22.735 15.66)"><path id="Caminho_10" data-name="Caminho 10" d="M35.44,15.66,52.031,29.431,35.44,43.2Z" transform="translate(-35.44 -15.66)" fill="#26923b" fill-rule="evenodd"></path></g><g id="Grupo_3" data-name="Grupo 3" transform="translate(78.324 24.713)"><path id="Caminho_11" data-name="Caminho 11" d="M203.827,70.19l-5.537,5.547v.785h2.062l3.475-3.479Z" transform="translate(-198.287 -60.628)" fill="#2e2e2f"></path><path id="Caminho_12" data-name="Caminho 12" d="M231.827,45.286c-.106-.082-.218-.16-.331-.236l-4.216,4.219a2.687,2.687,0,0,1,.239.355,4.866,4.866,0,0,1,.324,1.932l5.093-5.1A6.027,6.027,0,0,0,231.827,45.286Z" transform="translate(-217.38 -44.07)" fill="#2e2e2f"></path><path id="Caminho_13" data-name="Caminho 13" d="M206.74,83.616h2.652V80.96Z" transform="translate(-203.852 -67.722)" fill="#2e2e2f"></path><path id="Caminho_14" data-name="Caminho 14" d="M242.779,43.023a5.837,5.837,0,0,0-3.12-.843,6.1,6.1,0,0,0-3.41,1l-1.639,1.642c-.065.1-.133.188-.195.29-.014-.02-.027-.038-.041-.058l-5.414,5.421v7.6h5.54V50.356a5.185,5.185,0,0,1,.522-2.656,2.36,2.36,0,0,1,2.12-1.195A2.019,2.019,0,0,1,239.01,47.6a6.19,6.19,0,0,1,.42,2.758v7.715h5.54V47.925a8.932,8.932,0,0,0-.27-2.39A4.3,4.3,0,0,0,242.779,43.023Z" transform="translate(-218.487 -42.18)" fill="#2e2e2f"></path><path id="Caminho_15" data-name="Caminho 15" d="M203.82,50.962V50.4a10.079,10.079,0,0,1,.119-1.775,2.506,2.506,0,0,1,.386-1.017,2.318,2.318,0,0,1,2.021-1.041,2.274,2.274,0,0,1,1.42.444l4.107-4.114a6.5,6.5,0,0,0-2.994-.655,6.756,6.756,0,0,0-3.27.792,8.623,8.623,0,0,0-1.789,1.379V42.493h-5.54V56.509Z" transform="translate(-198.28 -42.22)" fill="#2e2e2f"></path></g><g id="Grupo_4" data-name="Grupo 4" transform="translate(207.495 24.986)"><path id="Caminho_16" data-name="Caminho 16" d="M611.64,42.98H609.21v2.431Z" transform="translate(-598.102 -42.98)" fill="#26923b"></path><path id="Caminho_17" data-name="Caminho 17" d="M584.071,68.874V68.85L579.5,73.428a5.272,5.272,0,0,0,.379.495,5.8,5.8,0,0,0,1.051.922l3.83-3.834A2.9,2.9,0,0,1,584.071,68.874Z" transform="translate(-578.534 -60.019)" fill="#26923b"></path><path id="Caminho_18" data-name="Caminho 18" d="M614.75,42.98H612.46l-3.25,3.253v2.85l5.541-5.544Z" transform="translate(-598.102 -42.98)" fill="#26923b"></path><path id="Caminho_19" data-name="Caminho 19" d="M582.207,50.992V42.98H576.67V52.9a6.367,6.367,0,0,0,.659,2.98Z" transform="translate(-576.67 -42.98)" fill="#26923b"></path><path id="Caminho_20" data-name="Caminho 20" d="M593.377,52.574V54.5a2.91,2.91,0,0,1-.7,2.154,2.828,2.828,0,0,1-2.076.741,3.17,3.17,0,0,1-1.642-.4l-3.786,3.793a11.066,11.066,0,0,0,5.428,1.15,13.014,13.014,0,0,0,4.192-.591,5.628,5.628,0,0,0,4.124-5.79V47.03Z" transform="translate(-582.268 -45.647)" fill="#26923b"></path></g><g id="Grupo_5" data-name="Grupo 5" transform="translate(168.084 17.63)"><path id="Caminho_21" data-name="Caminho 21" d="M461.22,31.4l5.964-4.984L461.22,21.43Z" transform="translate(-461.22 -21.43)" fill="#2e2e2f" fill-rule="evenodd"></path></g><g id="Grupo_6" data-name="Grupo 6" transform="translate(45.46 17.63)"><path id="Caminho_22" data-name="Caminho 22" d="M102.01,31.4l5.964-4.984L102.01,21.43Z" transform="translate(-102.01 -21.43)" fill="#26923b" fill-rule="evenodd"></path></g></g></svg> 