<?xml version="1.0" encoding="UTF-8"?> <svg xmlns="http://www.w3.org/2000/svg" width="207.518" height="30.317" viewBox="0 0 207.518 30.317"><g id="Camada_666" transform="translate(-16.15 -15.66)"><g id="Grupo_1" data-name="Grupo 1" transform="translate(16.15 15.66)"><path id="Caminho_1" data-name="Caminho 1" d="M16.15,15.66,31.508,28.4,16.15,41.146Z" transform="translate(-16.15 -15.66)" fill="#fff" fill-rule="evenodd"></path></g><path id="Caminho_2" data-name="Caminho 2" d="M92.425,36.137a12.092,12.092,0,0,1-.155,2.12,5.669,5.669,0,0,1-1.886,3.178,7,7,0,0,1-4.906,1.839,6.431,6.431,0,0,1-5.548-3.14l3.624-3.684q.246,2.071,1.8,2.073,1.588,0,1.554-2.464L86.9,34.889V21.43h5.532V36.137Z" transform="translate(-43.63 -3.947)" fill="#fff"></path><path id="Caminho_3" data-name="Caminho 3" d="M150.691,52.155a5.206,5.206,0,0,1-3.816,5.358,12.046,12.046,0,0,1-3.88.547q-4.5,0-6.467-2.212a5.351,5.351,0,0,1-1.248-3.693V42.98h5.128v8.2a2.693,2.693,0,0,0,.651,1.994,3.056,3.056,0,0,0,3.858,0,2.693,2.693,0,0,0,.651-1.994v-8.2h5.128v9.175Z" transform="translate(-81.493 -18.689)" fill="#fff"></path><path id="Caminho_4" data-name="Caminho 4" d="M306.914,49.252a7.405,7.405,0,0,1-2.569,5.914,6.961,6.961,0,0,1-4.682,1.76,6.57,6.57,0,0,1-2.894-.654,5.769,5.769,0,0,1-1.6-1.232v8.647H290.04V42h5.128v1.621a4.731,4.731,0,0,1,1.479-1.34,5.993,5.993,0,0,1,2.973-.733,7.039,7.039,0,0,1,4.793,1.851A7.425,7.425,0,0,1,306.914,49.252Zm-5.327-.016a3.193,3.193,0,0,0-.774-2.139,3.137,3.137,0,0,0-2.512-1.156,3.3,3.3,0,1,0,0,6.59,3.093,3.093,0,0,0,2.5-1.156A3.217,3.217,0,0,0,301.587,49.237Z" transform="translate(-187.359 -17.71)" fill="#fff"></path><path id="Caminho_5" data-name="Caminho 5" d="M370,50.3H359.268q0,3.256,3.131,3.257a2.721,2.721,0,0,0,2.448-1.371H369.8a6.678,6.678,0,0,1-1.744,3.03,7.885,7.885,0,0,1-5.592,1.943q-4.455,0-6.7-2.711a7.469,7.469,0,0,1-1.684-4.938,7.729,7.729,0,0,1,2.1-5.624,7.893,7.893,0,0,1,5.936-2.164q4.72,0,6.745,3.434A8.707,8.707,0,0,1,370,49.65V50.3Zm-4.783-2.913a2.745,2.745,0,0,0-2.9-2.445,2.739,2.739,0,0,0-2.913,2.445Z" transform="translate(-231.167 -17.827)" fill="#fff"></path><path id="Caminho_6" data-name="Caminho 6" d="M427.769,47.246a5.008,5.008,0,0,0-2.177-.515,3.1,3.1,0,0,0-3.264,2.073,5.881,5.881,0,0,0-.281,2.009V57H416.92V42.542h5.128v2.37a5.542,5.542,0,0,1,1.741-1.823,5.727,5.727,0,0,1,2.982-.749q.4,0,1,.047v4.859Z" transform="translate(-274.153 -18.251)" fill="#fff"></path><path id="Caminho_7" data-name="Caminho 7" d="M473.405,26.039h-6.654v3.63h6.06v4.613h-6.06V42.7H461.22V21.43H473.4v4.609Z" transform="translate(-304.457 -3.947)" fill="#26923b"></path><path id="Caminho_8" data-name="Caminho 8" d="M527.538,49.059a7.348,7.348,0,0,1-1.978,5.156,9.934,9.934,0,0,1-13.443,0,7.506,7.506,0,0,1-1.978-5.282,7.194,7.194,0,0,1,1.994-5,8.849,8.849,0,0,1,6.872-2.632,8.5,8.5,0,0,1,6.543,2.632A7.307,7.307,0,0,1,527.538,49.059Zm-5.33,0a3.355,3.355,0,0,0-3.365-3.368,3.2,3.2,0,0,0-2.575,1.191,3.365,3.365,0,0,0,0,4.369,3.2,3.2,0,0,0,2.575,1.191,3.239,3.239,0,0,0,2.388-.979A3.274,3.274,0,0,0,522.209,49.059Z" transform="translate(-337.922 -17.539)" fill="#26923b"></path><path id="Caminho_9" data-name="Caminho 9" d="M649.506,47.246a5.009,5.009,0,0,0-2.177-.515,3.1,3.1,0,0,0-3.264,2.073,5.886,5.886,0,0,0-.281,2.009V57H638.66V42.542h5.125v2.37a5.572,5.572,0,0,1,1.741-1.823,5.726,5.726,0,0,1,2.982-.749q.4,0,1,.047v4.859Z" transform="translate(-425.838 -18.251)" fill="#26923b"></path><g id="Grupo_2" data-name="Grupo 2" transform="translate(22.244 15.66)"><path id="Caminho_10" data-name="Caminho 10" d="M35.44,15.66,50.794,28.4,35.44,41.146Z" transform="translate(-35.44 -15.66)" fill="#26923b" fill-rule="evenodd"></path></g><g id="Grupo_3" data-name="Grupo 3" transform="translate(73.691 24.039)"><path id="Caminho_11" data-name="Caminho 11" d="M203.414,70.19l-5.124,5.134v.727H200.2l3.216-3.219Z" transform="translate(-198.287 -61.341)" fill="#fff"></path><path id="Caminho_12" data-name="Caminho 12" d="M231.488,45.268c-.1-.076-.2-.148-.306-.218l-3.9,3.9a2.485,2.485,0,0,1,.221.329,4.5,4.5,0,0,1,.3,1.788l4.714-4.72A5.576,5.576,0,0,0,231.488,45.268Z" transform="translate(-218.118 -44.143)" fill="#fff"></path><path id="Caminho_13" data-name="Caminho 13" d="M206.74,83.418h2.455V80.96Z" transform="translate(-204.067 -68.708)" fill="#fff"></path><path id="Caminho_14" data-name="Caminho 14" d="M241.749,42.96a5.4,5.4,0,0,0-2.888-.78,5.649,5.649,0,0,0-3.156.923l-1.516,1.52c-.06.088-.123.174-.18.269-.013-.019-.025-.035-.038-.054l-5.011,5.017v7.033h5.128v-7.14a4.8,4.8,0,0,1,.483-2.458,2.184,2.184,0,0,1,1.962-1.106,1.868,1.868,0,0,1,1.728,1.011,5.729,5.729,0,0,1,.389,2.553v7.14h5.128V47.5a8.266,8.266,0,0,0-.25-2.212A3.976,3.976,0,0,0,241.749,42.96Z" transform="translate(-219.267 -42.18)" fill="#fff"></path><path id="Caminho_15" data-name="Caminho 15" d="M203.408,50.312v-.521a9.326,9.326,0,0,1,.111-1.643,2.319,2.319,0,0,1,.357-.941,2.145,2.145,0,0,1,1.87-.964,2.1,2.1,0,0,1,1.314.411l3.8-3.807a6.017,6.017,0,0,0-2.771-.607,6.253,6.253,0,0,0-3.027.733,7.98,7.98,0,0,0-1.655,1.276V42.474H198.28V55.446Z" transform="translate(-198.28 -42.221)" fill="#fff"></path></g><g id="Grupo_4" data-name="Grupo 4" transform="translate(193.237 24.291)"><path id="Caminho_16" data-name="Caminho 16" d="M611.459,42.98h-2.25v2.249Z" transform="translate(-598.929 -42.98)" fill="#26923b"></path><path id="Caminho_17" data-name="Caminho 17" d="M583.73,68.872V68.85l-4.23,4.237a4.879,4.879,0,0,0,.351.458,5.372,5.372,0,0,0,.973.853l3.545-3.548A2.687,2.687,0,0,1,583.73,68.872Z" transform="translate(-578.606 -60.677)" fill="#26923b"></path><path id="Caminho_18" data-name="Caminho 18" d="M614.338,42.98h-2.12l-3.008,3.011v2.638l5.128-5.131Z" transform="translate(-598.929 -42.98)" fill="#26923b"></path><path id="Caminho_19" data-name="Caminho 19" d="M581.794,50.395V42.98H576.67v9.178a5.892,5.892,0,0,0,.61,2.758Z" transform="translate(-576.67 -42.98)" fill="#26923b"></path><path id="Caminho_20" data-name="Caminho 20" d="M592.765,52.161v1.785a2.694,2.694,0,0,1-.651,1.994,2.617,2.617,0,0,1-1.921.686,2.934,2.934,0,0,1-1.52-.366l-3.5,3.51a10.242,10.242,0,0,0,5.023,1.065,12.044,12.044,0,0,0,3.88-.547,5.209,5.209,0,0,0,3.817-5.358v-7.9Z" transform="translate(-582.485 -45.75)" fill="#26923b"></path></g><g id="Grupo_5" data-name="Grupo 5" transform="translate(156.763 17.483)"><path id="Caminho_21" data-name="Caminho 21" d="M461.22,30.655l5.519-4.613L461.22,21.43Z" transform="translate(-461.22 -21.43)" fill="#fff" fill-rule="evenodd"></path></g><g id="Grupo_6" data-name="Grupo 6" transform="translate(43.276 17.483)"><path id="Caminho_22" data-name="Caminho 22" d="M102.01,30.655l5.519-4.613L102.01,21.43Z" transform="translate(-102.01 -21.43)" fill="#26923b" fill-rule="evenodd"></path></g></g></svg> 